<?xml version="1.0" standalone="no"?>
<!DOCTYPE svg PUBLIC "-//W3C//DTD SVG 20010904//EN"
 "http://www.w3.org/TR/2001/REC-SVG-20010904/DTD/svg10.dtd">
<svg version="1.0" xmlns="http://www.w3.org/2000/svg"
 width="630.000000pt" height="630.000000pt" viewBox="0 0 630.000000 630.000000"
 preserveAspectRatio="xMidYMid meet">
<metadata>
Created by potrace 1.14, written by Peter Selinger 2001-2017
</metadata>
<g transform="translate(0.000000,630.000000) scale(0.100000,-0.100000)"
fill="#000000" stroke="none">
<path d="M1741 4421 c-74 -39 -160 -148 -161 -203 0 -10 90 -109 200 -220 110
-112 200 -208 200 -213 0 -6 -90 -100 -200 -210 -113 -113 -200 -208 -200
-218 0 -71 142 -217 211 -217 18 0 75 51 229 205 l205 205 205 -205 c163 -163
211 -205 231 -205 38 0 144 81 179 137 54 85 55 83 -170 308 -110 110 -199
203 -198 207 2 3 92 97 201 208 127 130 197 209 197 223 0 55 -117 185 -189
208 l-33 11 -209 -208 -209 -209 -208 208 c-131 130 -215 207 -228 207 -10 -1
-34 -9 -53 -19z"/>
<path d="M3586 4419 c-79 -42 -156 -140 -156 -201 0 -15 60 -82 200 -223 110
-110 200 -205 200 -210 0 -6 -90 -100 -200 -210 -206 -206 -215 -218 -189
-268 40 -77 147 -167 199 -167 20 0 70 45 230 205 l205 205 206 -206 c202
-202 208 -206 240 -200 71 13 199 148 199 210 0 27 -26 57 -202 233 l-201 201
25 30 c14 17 104 110 199 207 96 97 175 182 177 190 10 45 -98 173 -175 207
l-46 20 -208 -208 -209 -209 -208 208 c-131 131 -215 207 -228 207 -10 -1 -36
-10 -58 -21z"/>
<path d="M3015 2625 c-145 -27 -279 -94 -385 -192 -73 -68 -117 -126 -164
-221 -103 -203 -103 -464 -2 -677 88 -186 282 -347 481 -401 94 -25 256 -30
356 -9 302 61 533 290 595 592 26 122 16 282 -25 401 -120 357 -488 575 -856
507z m270 -170 c81 -21 163 -68 233 -131 63 -57 148 -176 137 -194 -9 -14
-1001 -14 -1010 1 -21 33 152 229 246 277 118 61 270 79 394 47z"/>
</g>
</svg>
