<svg xmlns="http://www.w3.org/2000/svg" viewBox="0 0 38 38"><circle fill="#FFCC4D" cx="19" cy="19" r="17"/><path fill="#FF7892" d="M35 24.1c0 2.7-2.2 5.1-5.1 5.1-2.7 0-5.1-2.2-5.1-5.1S27 19 29.9 19c2.9 0 5.1 2.2 5.1 5.1M13 24.1c0 2.7-2.2 5.1-5.1 5.1S2.8 27 2.8 24.1 5.2 19 8.1 19s4.9 2.2 4.9 5.1"/><path fill="#664500" d="M23 31h-8.1c-.5 0-1-.5-1-1s.5-.9 1-.9H23c.5 0 .9.5.9.9 0 .6-.3 1-.9 1"/><path fill="#5DADEC" d="M12.1 12c0 2.7-2.2 5.1-5.1 5.1-2.6-.1-5-2.3-5-5.1S6 2 7.1 2s5 7.3 5 10"/><path fill="#664500" d="M29.4 17.7c0-.2-1.4-3.3-4.4-3.3-3 0-4.4 3.2-4.4 3.3-.2.2 0 .5.2.6.2.2.5.2.6 0 0 0 1.3-.9 3.6-.9s3.6.9 3.6.9c.2 0 .2.2.3.2.2 0 .2 0 .3-.2.3-.1.3-.3.2-.6M18.5 17.7c0-.2-1.4-3.3-4.4-3.3s-4.4 3.2-4.4 3.3c-.2.2 0 .5.2.6.2.2.5.2.6 0 0 0 1.3-.9 3.6-.9s3.6.9 3.6.9c.2 0 .2.2.3.2s.2 0 .3-.2c.2-.1.3-.3.2-.6"/></svg>